<mxfile host="app.diagrams.net" agent="Mozilla/5.0 (Windows NT 10.0; Win64; x64) AppleWebKit/537.36 (KHTML, like Gecko) Chrome/131.0.0.0 Safari/537.36" version="26.0.4">
  <diagram name="Page-1" id="bUrbDQrwsLLWItzvLDOQ">
    <mxGraphModel dx="1434" dy="754" grid="1" gridSize="10" guides="1" tooltips="1" connect="1" arrows="1" fold="1" page="1" pageScale="1" pageWidth="850" pageHeight="650" math="0" shadow="0">
      <root>
        <mxCell id="0" />
        <mxCell id="1" parent="0" />
        <mxCell id="s9zvkdZLz2KEpCQygfdh-19" value="" style="rounded=0;whiteSpace=wrap;html=1;" vertex="1" parent="1">
          <mxGeometry x="240" y="110" width="390" height="430" as="geometry" />
        </mxCell>
        <mxCell id="s9zvkdZLz2KEpCQygfdh-3" style="edgeStyle=orthogonalEdgeStyle;rounded=0;orthogonalLoop=1;jettySize=auto;html=1;entryX=0;entryY=0.5;entryDx=0;entryDy=0;" edge="1" parent="1" source="s9zvkdZLz2KEpCQygfdh-1" target="s9zvkdZLz2KEpCQygfdh-2">
          <mxGeometry relative="1" as="geometry" />
        </mxCell>
        <mxCell id="s9zvkdZLz2KEpCQygfdh-1" value="Scraper" style="rounded=0;whiteSpace=wrap;html=1;" vertex="1" parent="1">
          <mxGeometry x="480" y="280" width="120" height="60" as="geometry" />
        </mxCell>
        <mxCell id="s9zvkdZLz2KEpCQygfdh-2" value="Facebook Marketplace Website" style="rounded=0;whiteSpace=wrap;html=1;" vertex="1" parent="1">
          <mxGeometry x="680" y="280" width="120" height="60" as="geometry" />
        </mxCell>
        <mxCell id="s9zvkdZLz2KEpCQygfdh-5" style="edgeStyle=orthogonalEdgeStyle;rounded=0;orthogonalLoop=1;jettySize=auto;html=1;entryX=0;entryY=0.5;entryDx=0;entryDy=0;" edge="1" parent="1" source="s9zvkdZLz2KEpCQygfdh-4" target="s9zvkdZLz2KEpCQygfdh-1">
          <mxGeometry relative="1" as="geometry" />
        </mxCell>
        <mxCell id="s9zvkdZLz2KEpCQygfdh-4" value="FBMAS background service" style="rounded=0;whiteSpace=wrap;html=1;" vertex="1" parent="1">
          <mxGeometry x="300" y="280" width="120" height="60" as="geometry" />
        </mxCell>
        <mxCell id="s9zvkdZLz2KEpCQygfdh-6" value="DB" style="shape=cylinder3;whiteSpace=wrap;html=1;boundedLbl=1;backgroundOutline=1;size=15;" vertex="1" parent="1">
          <mxGeometry x="330" y="440" width="60" height="80" as="geometry" />
        </mxCell>
        <mxCell id="s9zvkdZLz2KEpCQygfdh-7" style="edgeStyle=orthogonalEdgeStyle;rounded=0;orthogonalLoop=1;jettySize=auto;html=1;entryX=0.5;entryY=0;entryDx=0;entryDy=0;entryPerimeter=0;" edge="1" parent="1" source="s9zvkdZLz2KEpCQygfdh-4" target="s9zvkdZLz2KEpCQygfdh-6">
          <mxGeometry relative="1" as="geometry" />
        </mxCell>
        <mxCell id="s9zvkdZLz2KEpCQygfdh-8" value="GUI" style="rounded=0;whiteSpace=wrap;html=1;" vertex="1" parent="1">
          <mxGeometry x="300" y="170" width="120" height="70" as="geometry" />
        </mxCell>
        <mxCell id="s9zvkdZLz2KEpCQygfdh-10" value="" style="endArrow=classic;startArrow=classic;html=1;rounded=0;entryX=0.5;entryY=1;entryDx=0;entryDy=0;exitX=0.5;exitY=0;exitDx=0;exitDy=0;" edge="1" parent="1" source="s9zvkdZLz2KEpCQygfdh-4" target="s9zvkdZLz2KEpCQygfdh-8">
          <mxGeometry width="50" height="50" relative="1" as="geometry">
            <mxPoint x="400" y="260" as="sourcePoint" />
            <mxPoint x="450" y="210" as="targetPoint" />
          </mxGeometry>
        </mxCell>
        <mxCell id="s9zvkdZLz2KEpCQygfdh-12" value="" style="verticalLabelPosition=bottom;sketch=0;aspect=fixed;html=1;verticalAlign=top;strokeColor=none;align=center;outlineConnect=0;shape=mxgraph.citrix.cell_phone;" vertex="1" parent="1">
          <mxGeometry x="140" y="280" width="25" height="60" as="geometry" />
        </mxCell>
        <mxCell id="s9zvkdZLz2KEpCQygfdh-13" value="User" style="rounded=0;whiteSpace=wrap;html=1;" vertex="1" parent="1">
          <mxGeometry x="300" y="20" width="120" height="60" as="geometry" />
        </mxCell>
        <mxCell id="s9zvkdZLz2KEpCQygfdh-14" value="" style="endArrow=classic;startArrow=classic;html=1;rounded=0;entryX=0.5;entryY=1;entryDx=0;entryDy=0;exitX=0.5;exitY=0;exitDx=0;exitDy=0;" edge="1" parent="1" source="s9zvkdZLz2KEpCQygfdh-8" target="s9zvkdZLz2KEpCQygfdh-13">
          <mxGeometry width="50" height="50" relative="1" as="geometry">
            <mxPoint x="400" y="210" as="sourcePoint" />
            <mxPoint x="450" y="160" as="targetPoint" />
          </mxGeometry>
        </mxCell>
        <mxCell id="s9zvkdZLz2KEpCQygfdh-18" value="Creates Queries&lt;div&gt;Views filtered items&lt;/div&gt;" style="edgeLabel;html=1;align=center;verticalAlign=middle;resizable=0;points=[];fontStyle=0" vertex="1" connectable="0" parent="s9zvkdZLz2KEpCQygfdh-14">
          <mxGeometry x="-0.0333" y="1" relative="1" as="geometry">
            <mxPoint as="offset" />
          </mxGeometry>
        </mxCell>
        <mxCell id="s9zvkdZLz2KEpCQygfdh-15" value="" style="endArrow=classic;html=1;rounded=0;exitX=0;exitY=0.5;exitDx=0;exitDy=0;" edge="1" parent="1" source="s9zvkdZLz2KEpCQygfdh-4" target="s9zvkdZLz2KEpCQygfdh-12">
          <mxGeometry width="50" height="50" relative="1" as="geometry">
            <mxPoint x="290" y="300" as="sourcePoint" />
            <mxPoint x="113" y="300" as="targetPoint" />
          </mxGeometry>
        </mxCell>
        <mxCell id="s9zvkdZLz2KEpCQygfdh-17" value="SMS Alerts" style="edgeLabel;html=1;align=center;verticalAlign=middle;resizable=0;points=[];" vertex="1" connectable="0" parent="s9zvkdZLz2KEpCQygfdh-15">
          <mxGeometry x="-0.1111" y="2" relative="1" as="geometry">
            <mxPoint as="offset" />
          </mxGeometry>
        </mxCell>
        <mxCell id="s9zvkdZLz2KEpCQygfdh-20" value="&lt;b&gt;&lt;font style=&quot;font-size: 20px;&quot;&gt;FBMAS&lt;/font&gt;&lt;/b&gt;" style="text;html=1;align=center;verticalAlign=middle;resizable=0;points=[];autosize=1;strokeColor=none;fillColor=none;" vertex="1" parent="1">
          <mxGeometry x="510" y="120" width="90" height="40" as="geometry" />
        </mxCell>
      </root>
    </mxGraphModel>
  </diagram>
</mxfile>
